<svg xmlns="http://www.w3.org/2000/svg">

<g id="profile" width="49" height="49" viewBox="0 0 49 49" fill="none">
  <circle cx="24.5" cy="24.5" r="24.5" fill="#F9F9F9"/>
  <path d="M34.2232 33.8578V31.6184C34.2232 30.4306 33.7338 29.2914 32.8628 28.4515C31.9918 27.6115 30.8104 27.1396 29.5785 27.1396H20.2892C19.0574 27.1396 17.876 27.6115 17.0049 28.4515C16.1339 29.2914 15.6445 30.4306 15.6445 31.6184V33.8578" stroke="#292D32" stroke-width="1.5" stroke-linecap="round" stroke-linejoin="round"/>
  <path d="M24.9337 22.6607C27.4989 22.6607 29.5784 20.6555 29.5784 18.1819C29.5784 15.7083 27.4989 13.7031 24.9337 13.7031C22.3685 13.7031 20.2891 15.7083 20.2891 18.1819C20.2891 20.6555 22.3685 22.6607 24.9337 22.6607Z" stroke="#292D32" stroke-width="1.5" stroke-linecap="round" stroke-linejoin="round"/>
</g>

<g id="stats" width="49" height="49" viewBox="0 0 49 49" fill="none">
  <circle cx="24.5" cy="24.5" r="24.5" fill="#F9F9F9"/>
  <g clip-path="url(#clip0_2488_191)">
  <g clip-path="url(#clip1_2488_191)">
  <path d="M22.9494 18.9494C23.4932 18.4055 24.2309 18.1 25 18.1C25.7691 18.1 26.5068 18.4055 27.0506 18.9494C27.5945 19.4932 27.9 20.2309 27.9 21V33C27.9 33.7691 27.5945 34.5068 27.0506 35.0506C26.5068 35.5945 25.7691 35.9 25 35.9C24.2309 35.9 23.4932 35.5945 22.9494 35.0506C22.4055 34.5068 22.1 33.7691 22.1 33V21C22.1 20.2309 22.4055 19.4932 22.9494 18.9494ZM25.7778 33.7778C25.9841 33.5715 26.1 33.2917 26.1 33V21C26.1 20.7083 25.9841 20.4285 25.7778 20.2222C25.5715 20.0159 25.2917 19.9 25 19.9C24.7083 19.9 24.4285 20.0159 24.2222 20.2222C24.0159 20.4285 23.9 20.7083 23.9 21V33C23.9 33.2917 24.0159 33.5715 24.2222 33.7778C24.4285 33.9841 24.7083 34.1 25 34.1C25.2917 34.1 25.5715 33.9841 25.7778 33.7778Z" fill="#292D32" stroke="#FAFAFA" stroke-width="0.2"/>
  <path d="M31.9494 12.9494C32.4932 12.4055 33.2309 12.1 34 12.1C34.7691 12.1 35.5068 12.4055 36.0506 12.9494C36.5945 13.4932 36.9 14.2309 36.9 15V33C36.9 33.7691 36.5945 34.5068 36.0506 35.0506C35.5068 35.5945 34.7691 35.9 34 35.9C33.2309 35.9 32.4932 35.5945 31.9494 35.0506C31.4055 34.5068 31.1 33.7691 31.1 33V15C31.1 14.2309 31.4055 13.4932 31.9494 12.9494ZM34.7778 33.7778C34.9841 33.5715 35.1 33.2917 35.1 33V15C35.1 14.7083 34.9841 14.4285 34.7778 14.2222C34.5715 14.0159 34.2917 13.9 34 13.9C33.7083 13.9 33.4285 14.0159 33.2222 14.2222C33.0159 14.4285 32.9 14.7083 32.9 15V33C32.9 33.2917 33.0159 33.5715 33.2222 33.7778C33.4285 33.9841 33.7083 34.1 34 34.1C34.2917 34.1 34.5715 33.9841 34.7778 33.7778Z" fill="#292D32" stroke="#FAFAFA" stroke-width="0.2"/>
  <rect x="13.75" y="24.75" width="4.5" height="10.5" rx="2.25" stroke="#292D32" stroke-width="1.5"/>
  </g>
  </g>
  <defs>
  <clipPath id="clip0_2488_191">
  <rect width="24" height="24" fill="white" transform="translate(13 12)"/>
  </clipPath>
  <clipPath id="clip1_2488_191">
  <rect width="24" height="24" fill="white" transform="translate(13 12)"/>
  </clipPath>
  </defs>
</g>

<g id="likes" width="49" height="49" viewBox="0 0 49 49" fill="none">
  <circle cx="24.5" cy="24.5" r="24.5" fill="#F9F9F9"/>
  <g clip-path="url(#clip0_2488_198)">
  <g clip-path="url(#clip1_2488_198)">
  <path d="M19.5 13.917C17.7049 13.995 16.0137 14.7802 14.7958 16.1012C13.5779 17.4222 12.9323 19.1715 13 20.967C13 25.514 17.786 30.48 21.8 33.847C22.6962 34.6001 23.8294 35.013 25 35.013C26.1706 35.013 27.3038 34.6001 28.2 33.847C32.214 30.48 37 25.514 37 20.967C37.0678 19.1715 36.4221 17.4222 35.2042 16.1012C33.9863 14.7802 32.2951 13.995 30.5 13.917M19.5 13.917L19.4977 14.067C19.4991 14.067 19.5006 14.067 19.5021 14.067M19.5 13.917L19.5065 14.0669C19.505 14.0669 19.5036 14.067 19.5021 14.067M19.5 13.917C20.6261 13.9345 21.7275 14.2488 22.6932 14.8283C23.6089 15.3777 24.3718 16.147 24.9133 17.0652C24.8983 17.0915 24.8834 17.1179 24.8688 17.1444L25 17.217L25.1312 17.1444C25.1166 17.1179 25.1017 17.0915 25.0867 17.0652C25.6282 16.147 26.3911 15.3777 27.3068 14.8283C28.2725 14.2488 29.374 13.9345 30.5 13.917M19.5021 14.067C17.7483 14.1444 16.0961 14.9121 14.9061 16.2029C13.715 17.4947 13.0836 19.2055 13.1499 20.9613L13.1501 20.967H13.15C13.15 23.1911 14.3226 25.5368 16.0141 27.7586C17.7029 29.977 19.8936 32.0521 21.8964 33.7321L21.8965 33.7322C22.7657 34.4626 23.8647 34.863 25 34.863C26.1353 34.863 27.2343 34.4626 28.1035 33.7322L28.1036 33.7321C30.1064 32.0521 32.2971 29.977 33.9859 27.7586C35.6774 25.5368 36.85 23.1911 36.85 20.967V20.9613L36.8501 20.9613C36.9164 19.2055 36.285 17.4947 35.0939 16.2029C33.9039 14.9121 32.2517 14.1444 30.4979 14.067M19.5021 14.067C20.6002 14.0849 21.6743 14.3918 22.6161 14.9569C23.5591 15.5227 24.3362 16.3274 24.8688 17.2896L25 17.5267L25.1312 17.2896C25.6638 16.3274 26.4409 15.5227 27.3839 14.9569C28.3257 14.3918 29.3998 14.0849 30.4979 14.067M30.4979 14.067C30.4994 14.067 30.5009 14.067 30.5023 14.067L30.5 13.917M30.4979 14.067C30.4964 14.067 30.495 14.0669 30.4935 14.0669L30.5 13.917M27.065 32.3868L27.0116 32.4317C26.4486 32.9059 25.7361 33.1659 25 33.1659C24.264 33.1659 23.5516 32.9059 22.9886 32.4319C22.9885 32.4318 22.9885 32.4318 22.9884 32.4317L23.085 32.317C17.947 28.006 15 23.87 15 20.967L27.065 32.3868ZM27.065 32.3868V32.3829C29.6151 30.2395 31.6276 28.1356 33.0064 26.2005C34.391 24.2575 35.1486 22.468 35.15 20.9711C35.2194 19.6676 34.7711 18.3895 33.9026 17.4149C33.0333 16.4393 31.8135 15.847 30.5092 15.7673L30.5 15.7667L30.4908 15.7673C29.1866 15.847 27.9667 16.4393 27.0974 17.4149C26.229 18.3894 25.7807 19.6675 25.85 20.9708C25.849 21.1949 25.7595 21.4095 25.601 21.568C25.4416 21.7274 25.2254 21.817 25 21.817C24.7746 21.817 24.5584 21.7274 24.399 21.568C24.2405 21.4095 24.151 21.1949 24.15 20.9708C24.2193 19.6675 23.771 18.3894 22.9026 17.4149C22.0333 16.4393 20.8135 15.847 19.5092 15.7673L19.5 15.7667L19.4908 15.7673C18.1866 15.847 16.9667 16.4393 16.0974 17.4149C15.2289 18.3895 14.7807 19.6676 14.85 20.971L27.065 32.3868Z" fill="#292D32" stroke="#F9F9F9" stroke-width="0.3"/>
  </g>
  </g>
  <defs>
  <clipPath id="clip0_2488_198">
  <rect width="24" height="24" fill="white" transform="translate(13 12)"/>
  </clipPath>
  <clipPath id="clip1_2488_198">
  <rect width="24" height="24" fill="white" transform="translate(13 12)"/>
  </clipPath>
  </defs>
</g>

<g id="bag" width="49" height="49" viewBox="0 0 49 49" fill="none">
  <circle cx="24.5" cy="24.5" r="24.5" fill="#F9F9F9"/>
  <path d="M30.1158 18.6957V16.558C30.1158 15.8919 29.9846 15.2323 29.7297 14.6169C29.4748 14.0015 29.1011 13.4423 28.6301 12.9713C28.1591 12.5003 27.5999 12.1266 26.9845 11.8717C26.3691 11.6168 25.7095 11.4856 25.0434 11.4856C24.3773 11.4856 23.7177 11.6168 23.1022 11.8717C22.4868 12.1266 21.9276 12.5003 21.4566 12.9713C20.9856 13.4423 20.612 14.0015 20.3571 14.6169C20.1022 15.2323 19.971 15.8919 19.971 16.558V21.6304C19.971 21.8226 20.0473 22.0069 20.1832 22.1428C20.3191 22.2787 20.5034 22.3551 20.6956 22.3551C20.8878 22.3551 21.0721 22.2787 21.208 22.1428C21.3439 22.0069 21.4202 21.8226 21.4202 21.6304V20.1449H27.2173V18.6957H21.4202V16.558C21.4202 15.5971 21.8019 14.6755 22.4814 13.9961C23.1609 13.3166 24.0825 12.9349 25.0434 12.9349C26.0043 12.9349 26.9259 13.3166 27.6053 13.9961C28.2848 14.6755 28.6665 15.5971 28.6665 16.558V21.5942C28.6665 21.7864 28.7429 21.9707 28.8788 22.1066C29.0147 22.2425 29.199 22.3188 29.3912 22.3188C29.5833 22.3188 29.7677 22.2425 29.9036 22.1066C30.0395 21.9707 30.1158 21.7864 30.1158 21.5942V20.1449H33.739V33.1883H16.3478V20.1449H18.5217V18.6957H14.8985V33.2535C14.8985 33.6206 15.0443 33.9726 15.3039 34.2322C15.5635 34.4918 15.9155 34.6376 16.2826 34.6376H33.8042C34.1712 34.6376 34.5233 34.4918 34.7828 34.2322C35.0424 33.9726 35.1882 33.6206 35.1882 33.2535V18.6957H30.1158Z" fill="#292D32"/>
</g>

</svg>
